<?xml version="1.0" encoding="UTF-8"?>
<svg id="Capa_1" x="0px" y="0px" viewBox="0 0 268.765 268.765" xmlns="http://www.w3.org/2000/svg" xmlns:svg="http://www.w3.org/2000/svg">

 <g>
  <title>Layer 1</title>
  <g id="Settings">
   <g id="svg_1">
    <path id="svg_2" fill-rule="evenodd" clip-rule="evenodd" d="m267.920013,119.460999c-0.425018,-3.778 -4.830017,-6.616997 -8.639008,-6.616997c-12.315002,0 -23.242996,-7.231003 -27.825989,-18.414001c-4.682007,-11.454002 -1.66301,-24.812004 7.514999,-33.230999c2.888992,-2.641003 3.23999,-7.062 0.816986,-10.132999c-6.302994,-8.004002 -13.466995,-15.234001 -21.288986,-21.500002c-3.063004,-2.458 -7.557007,-2.115999 -10.213013,0.825001c-8.009995,8.871 -22.397995,12.167997 -33.515991,7.528997c-11.570007,-4.866997 -18.865997,-16.590998 -18.152008,-29.175998c0.235001,-3.953001 -2.653992,-7.39 -6.595001,-7.849c-10.037994,-1.161 -20.163986,-1.197 -30.231995,-0.08c-3.895996,0.43 -6.784996,3.786 -6.653999,7.689c0.438004,12.461 -6.945999,23.980001 -18.401001,28.671999c-10.984985,4.487 -25.271988,1.218002 -33.265987,-7.573999c-2.642002,-2.896 -7.063,-3.251999 -10.141003,-0.852999c-8.053997,6.319 -15.378998,13.555 -21.739998,21.493c-2.481001,3.085999 -2.116001,7.558998 0.802,10.214001c9.352999,8.470001 12.372999,21.944 7.513998,33.529999c-4.639,11.045998 -16.108999,18.165001 -29.239999,18.165001c-4.261,-0.137001 -7.296,2.723 -7.762,6.597c-1.182,10.095993 -1.196,20.382996 -0.058,30.561005c0.422,3.793991 4.961,6.608002 8.812,6.608002c11.702001,-0.299011 22.937001,6.945999 27.649999,18.414993c4.698002,11.453995 1.678001,24.804001 -7.513998,33.229996c-2.875,2.641006 -3.240002,7.055008 -0.817001,10.126007c6.244001,7.953003 13.409002,15.190002 21.259001,21.507996c3.078999,2.481003 7.558998,2.130997 10.228001,-0.809998c8.040001,-8.893005 22.427002,-12.184006 33.500999,-7.535995c11.598999,4.85199 18.894997,16.574997 18.181,29.166992c-0.233002,3.954987 2.669998,7.39801 6.595001,7.850006c5.135002,0.598999 10.301003,0.89801 15.480995,0.89801c4.917007,0 9.835007,-0.27002 14.751999,-0.817017c3.897003,-0.429993 6.784012,-3.786011 6.653,-7.695984c-0.450989,-12.45401 6.945999,-23.973007 18.386002,-28.657013c11.059006,-4.516998 25.285995,-1.210999 33.280991,7.572006c2.656998,2.889999 7.046997,3.238998 10.141998,0.847992c8.039001,-6.304001 15.348999,-13.533997 21.740005,-21.494003c2.479996,-3.078995 2.130005,-7.55899 -0.802994,-10.212997c-9.353012,-8.470001 -12.388,-21.945999 -7.529007,-33.524002c4.567993,-10.899002 15.612,-18.216995 27.490997,-18.216995l1.661987,0.042999c3.853027,0.313004 7.39801,-2.654999 7.865021,-6.587997c1.18399,-10.104996 1.197998,-20.382996 0.059998,-30.561005zm-133.325012,60.029999c-24.718002,0 -44.823997,-20.106003 -44.823997,-44.82399c0,-24.71701 20.105995,-44.82402 44.823997,-44.82402c24.716995,0 44.822998,20.10701 44.822998,44.82402c0,24.717987 -20.106003,44.82399 -44.822998,44.82399z"/>
   </g>
  </g>
  <g id="svg_3"/>
  <g id="svg_4"/>
  <g id="svg_5"/>
  <g id="svg_6"/>
  <g id="svg_7"/>
  <g id="svg_8"/>
  <g id="svg_9"/>
  <g id="svg_10"/>
  <g id="svg_11"/>
  <g id="svg_12"/>
  <g id="svg_13"/>
  <g id="svg_14"/>
  <g id="svg_15"/>
  <g id="svg_16"/>
  <g id="svg_17"/>
  <ellipse ry="44" rx="44" id="svg_18" cy="134.782501" cx="135.382507" stroke-width="5" stroke="#000000" fill="#ffffff"/>
 </g>
</svg>